<svg id="Capa_1" enable-background="new 0 0 512 512" height="512" viewBox="0 0 512 512" width="512" xmlns="http://www.w3.org/2000/svg"><g><path d="m394.954 314.863h-4.441l6.712-91.133h24.11c16.954 0 30.697 13.744 30.697 30.697v3.358c0 31.524-25.555 57.078-57.078 57.078z" fill="#f9a58e"/><path d="m117.046 314.863h4.442l-6.712-91.133h-24.11c-16.954 0-30.697 13.744-30.697 30.697v3.358c-.001 31.524 25.554 57.078 57.077 57.078z" fill="#eaac9d"/><path d="m329.064 447.769v-26.123c-25.614 17.521-53.9 27.554-73.064 27.554s-47.45-10.033-73.064-27.555v26.123c0 14.559-8.35 27.827-21.476 34.125l-30.88 14.817c-3.929 1.885-2.586 7.789 1.772 7.789h247.296c4.358 0 5.701-5.903 1.772-7.789l-30.88-14.817c-13.126-6.297-21.476-19.566-21.476-34.124z" fill="#ffcbbe"/><path d="m399.081 198.512c6.124-83.161-59.695-154.006-143.081-154.006s-149.205 70.845-143.081 154.006l9.755 132.459c5.143 69.834 91.237 118.23 133.326 118.23s128.182-48.396 133.326-118.23c0 0 9.755-132.459 9.755-132.459z" fill="#ffcbbe"/><path d="m299.305 51.146c39.235 28.045 63.61 75.29 59.775 127.365 0 0-9.755 132.459-9.755 132.459-5.143 69.834-91.236 118.23-133.326 118.23-8.735 0-19.366-2.085-30.775-6.013 24.997 16.567 52.181 26.013 70.775 26.013 42.089 0 128.182-48.396 133.326-118.23 0 0 9.755-132.459 9.755-132.459 5.014-68.08-38.189-127.906-99.775-147.365z" fill="#eaac9d"/><path d="m404.055 47.727h-38.095c-.589 0-1.066-.477-1.066-1.066v-38.095c0-.589-.477-1.066-1.066-1.066h-23.418c-.589 0-1.066.477-1.066 1.066v38.094c0 .589-.477 1.066-1.066 1.066h-38.094c-.589 0-1.066.477-1.066 1.066v23.418c0 .589.477 1.066 1.066 1.066h38.094c.589 0 1.066.477 1.066 1.066v38.094c0 .589.477 1.066 1.066 1.066h23.418c.589 0 1.066-.477 1.066-1.066v-38.092c0-.589.477-1.066 1.066-1.066h38.094c.589 0 1.066-.477 1.066-1.066v-23.419c.001-.588-.476-1.066-1.065-1.066z" fill="#f1f4f6"/><path d="m272.054 161.685c0-.589.477-1.066 1.066-1.066h51.873c.589 0 1.066-.477 1.066-1.066v-29.975c0-.589-.477-1.066-1.066-1.066h-51.873c-.589 0-1.066-.477-1.066-1.066v-51.874c0-.589-.477-1.066-1.066-1.066h-29.975c-.589 0-1.066.477-1.066 1.066v51.872c0 .589-.477 1.066-1.066 1.066h-51.872c-.589 0-1.066.477-1.066 1.066v29.975c0 .589.477 1.066 1.066 1.066h51.872c.589 0 1.066.477 1.066 1.066v34.623h32.107z" fill="#f1f4f6"/><path d="m239.946 176.308h32.107v20h-32.107z" fill="#dfeaef"/><path d="m238.88 160.618h-51.872c-.589 0-1.066-.477-1.066-1.066v-29.975c0-.589.477-1.066 1.066-1.066h51.872c.589 0 1.066-.477 1.066-1.066v-51.832c-25.666 3.578-49.06 15.739-67.075 35.13-17.978 19.351-28.383 43.516-30.098 69.316-.585 8.794 6.4 16.249 15.213 16.249h81.96v-34.623c0-.589-.477-1.067-1.066-1.067z" fill="#86f1a7"/><path d="m341.615 113.505h-1.205c-.589 0-1.066-.477-1.066-1.066v-1.463c-.072-.078-.143-.155-.215-.232-18.015-19.39-41.409-31.551-67.075-35.13v51.832c0 .589.477 1.066 1.066 1.066h51.873c.589 0 1.066.477 1.066 1.066v29.975c0 .589-.477 1.066-1.066 1.066h-51.873c-.589 0-1.066.477-1.066 1.066v34.623h81.961c8.813 0 15.798-7.456 15.213-16.249-1.636-24.587-11.162-47.689-27.613-66.554z" fill="#86f1a7"/><path d="m143.085 176.308c-.124 1.246-.229 2.496-.312 3.751-.585 8.794 6.4 16.249 15.213 16.249h81.96v-20z" fill="#80e29d"/><path d="m285.804 78.407c17.156 13.677 29.58 30.929 36.693 50.104h2.495c.589 0 1.066.477 1.066 1.066v10.397c1.651 6.541 2.714 13.255 3.168 20.084.585 8.794-6.4 16.249-15.213 16.249h-41.961v20h81.961c8.813 0 15.798-7.456 15.213-16.249-1.635-24.587-11.161-47.688-27.612-66.554h-1.205c-.589 0-1.066-.477-1.066-1.066v-1.463c-.072-.078-.143-.155-.215-.232-14.769-15.896-33.152-26.934-53.439-32.367z" fill="#80e29d"/><g fill="#222221"><path d="m421.334 216.23h-16.038l1.264-17.168c2.882-39.134-9.238-77.102-34.166-107.236v-11.049h31.66c4.724 0 8.566-3.843 8.566-8.566v-23.418c0-4.724-3.843-8.566-8.566-8.566h-31.66v-31.661c0-4.724-3.843-8.566-8.566-8.566h-23.418c-4.724 0-8.566 3.843-8.566 8.566v31.661h-31.661c-1.993 0-3.829.684-5.286 1.83-100.728-26.751-197.062 53.758-189.458 157.006l1.264 17.168h-16.037c-21.063 0-38.197 17.135-38.197 38.197v3.357c0 34.761 27.607 63.196 62.048 64.529l.678 9.207c2.869 38.949 29.22 71.748 60.242 93.989v22.258c0 11.603-6.76 22.343-17.22 27.363l-30.881 14.817c-4.912 2.357-7.499 7.713-6.291 13.026 1.209 5.313 5.858 9.024 11.308 9.024h247.296c5.449 0 10.099-3.711 11.307-9.024 1.209-5.313-1.378-10.67-6.29-13.026l-30.881-14.818c-10.461-5.02-17.221-15.76-17.221-27.363v-22.208c15.938-11.421 30.559-25.542 41.331-41.61 2.307-3.44 1.388-8.1-2.054-10.406-3.441-2.306-8.1-1.386-10.405 2.054-26.995 40.269-80.153 66.103-109.436 66.103-43.496 0-121.323-49.859-125.847-111.281-16.139-219.145 5.239 71.145-9.755-132.459-6.872-93.332 80.506-165.771 171.219-141.254v15.552c-5.083-1.546-10.297-2.76-15.623-3.633-1.409-1.019-3.139-1.62-5.007-1.62h-29.975c-1.868 0-3.599.602-5.008 1.621-9.658 1.586-19.055 4.334-27.975 8.182-3.804 1.641-5.557 6.054-3.916 9.857 1.649 3.822 6.074 5.549 9.857 3.915 5.941-2.563 12.128-4.568 18.476-5.991v36.421h-45.438c-4.724 0-8.566 3.843-8.566 8.566v29.975c0 4.724 3.843 8.566 8.566 8.566h45.438v20.69h-74.46c-4.479 0-8.027-3.778-7.729-8.252 1.91-28.739 15.204-54.176 36.18-72.549 3.116-2.729 3.43-7.467.7-10.583-2.728-3.115-7.467-3.429-10.583-.701-23.541 20.617-39.049 49.527-41.264 82.838-.872 13.102 9.552 24.248 22.696 24.248h196.027c13.13 0 23.569-11.132 22.696-24.247-1.406-21.143-8.233-41.118-19.915-58.557 7.465 0 7.825.081 9.188-.275 2.357-.613 4.413-2.243 5.538-4.526 15.159 24.284 22.223 52.662 20.08 81.757-12.243 166.238-7.296 100.369-8.568 116.347-1.202 16.325-1.255 22.004-3.816 31.586-1.07 4.001 1.306 8.113 5.308 9.183 4.003 1.068 8.113-1.306 9.183-5.308 2.795-10.448 3.021-17.199 3.777-27.455 34.441-1.333 62.048-29.768 62.048-64.529v-3.357c-.001-21.061-17.136-38.197-38.198-38.197zm-99.771 219.078v12.461c0 17.337 10.101 33.386 25.731 40.886l17.392 8.345h-217.37l17.39-8.345c15.632-7.5 25.731-23.549 25.731-40.886v-12.512c23.392 13.723 47.689 21.443 65.563 21.443 18.265.001 42.441-7.82 65.563-21.392zm-254.094-177.523v-3.357c0-12.791 10.406-23.197 23.197-23.197h17.142l5.597 76c-25.643-1.871-45.936-23.333-45.936-49.446zm264.375-164.111c-6.117-4.963-12.642-9.273-19.512-12.896h19.512zm22.17 95.134h-74.46v-20.69h2.604c4.143 0 7.5-3.358 7.5-7.5s-3.357-7.5-7.5-7.5h-9.038c-4.724 0-8.566 3.843-8.566 8.566v27.124h-17.107v-27.124c0-4.724-3.843-8.566-8.566-8.566h-45.438v-17.107h45.438c4.724 0 8.566-3.843 8.566-8.566v-45.439h17.107v45.439c0 4.724 3.843 8.566 8.566 8.566h45.438v17.107h-1.4c-4.143 0-7.5 3.358-7.5 7.5s3.357 7.5 7.5 7.5h7.834c4.724 0 8.566-3.843 8.566-8.566v-29.975c0-4.723-3.843-8.566-8.566-8.566h-45.438v-36.425c19.958 4.457 37.917 14.554 52.46 29.555.614 3.031 2.839 5.512 5.787 6.457 14.206 17.169 22.471 37.838 23.942 59.959.298 4.468-3.245 8.251-7.729 8.251zm3.381-82.804h-10.551v-31.66c0-4.724-3.843-8.566-8.566-8.566h-31.66v-10.55h31.66c4.724 0 8.566-3.843 8.566-8.566v-31.662h10.551v31.661c0 4.724 3.843 8.566 8.565 8.566h31.661v10.55h-31.661c-4.723 0-8.565 3.843-8.565 8.566zm87.136 151.781c0 26.113-20.293 47.575-45.937 49.445l5.597-76h17.143c12.791 0 23.197 10.406 23.197 23.197z"/><path d="m243.528 245.788c0-4.142-3.357-7.5-7.5-7.5h-59.765c-4.143 0-7.5 3.358-7.5 7.5s3.357 7.5 7.5 7.5h59.765c4.143 0 7.5-3.358 7.5-7.5z"/><path d="m343.236 245.788c0-4.142-3.357-7.5-7.5-7.5h-39.793c-15.147 0-27.472 12.324-27.472 27.472v39.35c0 6.877-5.595 12.472-12.472 12.472-4.143 0-7.5 3.358-7.5 7.5s3.357 7.5 7.5 7.5c15.147 0 27.472-12.324 27.472-27.472v-39.35c0-6.877 5.595-12.472 12.472-12.472h39.793c4.143 0 7.5-3.358 7.5-7.5z"/><path d="m203.73 382.833 6.277 3.149c28.794 14.445 63.181 14.45 91.984 0l6.277-3.149c3.702-1.857 5.198-6.364 3.341-10.066s-6.362-5.198-10.067-3.341l-6.277 3.149c-24.586 12.334-53.945 12.334-78.531 0l-6.277-3.149c-3.702-1.856-8.209-.362-10.067 3.341-1.858 3.702-.362 8.209 3.34 10.066z"/></g></g></svg>