<svg id="Layer_1" enable-background="new 0 0 512 512" height="512" viewBox="0 0 512 512" width="512" xmlns="http://www.w3.org/2000/svg"><g><g><path clip-rule="evenodd" d="m186.059 473.296c0 19.289 15.114 35.094 33.567 35.094h5.096c18.453 0 33.538-15.805 33.538-35.094v-33.05h-72.201z" fill="#ffece4" fill-rule="evenodd"/></g><g><path clip-rule="evenodd" d="m258.26 473.296c0 19.289 15.114 35.094 33.567 35.094h5.096c18.453 0 33.567-15.805 33.567-35.094v-33.05h-72.23l-7.974 16.208z" fill="#ffece4" fill-rule="evenodd"/></g><g><path clip-rule="evenodd" d="m224.721 508.39c18.453 0 33.538-15.805 33.538-35.094v-21.246h-24.182v21.246c0 15.834-10.162 29.307-24.009 33.626 3.023.95 6.247 1.468 9.558 1.468z" fill="#ffddce" fill-rule="evenodd"/></g><g><path clip-rule="evenodd" d="m186.059 452.05h72.201l17.24-57.05-17.24-63.202h-.346l-38.914-23.636-32.941 23.636z" fill="#808b95" fill-rule="evenodd"/></g><g><path clip-rule="evenodd" d="m296.923 508.39c18.453 0 33.567-15.805 33.567-35.094v-21.246h-24.211v21.246c0 15.834-10.162 29.307-24.009 33.626 3.052.95 6.247 1.468 9.558 1.468z" fill="#ffddce" fill-rule="evenodd"/></g><g><path clip-rule="evenodd" d="m258.26 452.05h72.23v-120.252l-36.115-24.964-36.115 24.964z" fill="#808b95" fill-rule="evenodd"/></g><g><path clip-rule="evenodd" d="m38.317 58.561c-21.073 0-38.317 17.244-38.317 38.318s17.244 38.318 38.317 38.318h38.979c7.168 0 13.07 5.873 13.07 13.041v191.563h64.313l103.609-53.239 94.771 53.239h68.603v-191.562c0-7.169 5.873-13.041 13.041-13.041h38.979c21.073 0 38.317-17.245 38.317-38.318s-17.244-38.318-38.317-38.318h-40.476-177.192-177.22-40.477z" fill="#b1d7fe" fill-rule="evenodd"/></g><g><path clip-rule="evenodd" d="m0 96.879v237.942c0 21.074 17.244 38.318 38.317 38.318h38.979c7.168 0 13.07-5.873 13.07-13.041v-20.296-191.563c0-7.169-5.902-13.041-13.07-13.041h-38.979c-21.073-.001-38.317-17.246-38.317-38.319z" fill="#808b95" fill-rule="evenodd"/></g><g><path clip-rule="evenodd" d="m421.662 148.239v191.563 20.296c0 7.168 5.873 13.041 13.041 13.041h38.979c21.073 0 38.317-17.245 38.317-38.318v-237.942c0 21.074-17.244 38.318-38.317 38.318h-38.979c-7.168 0-13.041 5.873-13.041 13.042z" fill="#808b95" fill-rule="evenodd"/></g><g><path clip-rule="evenodd" d="m77.297 135.197h-38.98c7.168 0 13.041 5.873 13.041 13.041v191.563 20.296c0 7.168-5.873 13.041-13.041 13.041h38.979c7.168 0 13.07-5.873 13.07-13.041v-20.296-191.562c0-7.169-5.901-13.042-13.069-13.042z" fill="#566b74" fill-rule="evenodd"/></g><g><path clip-rule="evenodd" d="m473.683 58.561h-40.476-123.33c11.803 11.602 22.138 24.471 30.746 38.318 9.385 15.085 16.697 31.351 21.649 48.481.72 2.447 1.382 4.952 1.986 7.428 3.541 14.395 5.383 29.365 5.383 44.709 0 2.936-.058 5.844-.202 8.752-2.389 51.763-.374 98.233-37.482 133.183l89.704.37v-191.563c0-7.169 5.873-13.041 13.041-13.041h38.979c21.073 0 38.317-17.245 38.317-38.318s-17.242-38.319-38.315-38.319z" fill="#8bc6f8" fill-rule="evenodd"/></g><g><path clip-rule="evenodd" d="m485.14 133.441v201.38c0 21.074-17.244 38.318-38.317 38.318h26.859c21.073 0 38.317-17.245 38.317-38.318v-237.942c.001 17.072-11.342 31.668-26.859 36.562z" fill="#566b74" fill-rule="evenodd"/></g><g><path clip-rule="evenodd" d="m293.499 168.136h-68.806c-51.128 0-83.774 36.963-83.774 95.23v44.792l37.396 19.584 7.747 4.059h144.431v-.35l7.706-3.976 37.437-19.316v-44.792c-.001-57.382-32.308-95.231-82.137-95.231z" fill="#ccf49f" fill-rule="evenodd"/></g><g><path clip-rule="evenodd" d="m257.914 213.1c16.697 0 30.372-15.057 30.372-33.424v-21.419-8.147c-4.577 3.08-9.443 5.643-14.481 7.514-5.729 2.13-10.824 3.196-15.891 3.196-5.096 0-10.162-1.065-15.92-3.196-5.038-1.871-9.903-4.434-14.452-7.514v8.147 21.419c.001 18.368 13.675 33.424 30.372 33.424z" fill="#ffddce" fill-rule="evenodd"/></g><g><path clip-rule="evenodd" d="m257.914 170.694c5.067 0 10.162-1.065 15.891-3.196 5.038-1.871 9.903-4.434 14.481-7.514 19.173-12.984 33.164-35.18 33.164-53.605v-29.307h-11.659c-24.758 0-29.911-30.488-60.139-30.488h-9.99c-23.175 0-1.641 35.123-28.27 35.123h-16.985v24.672c0 18.425 13.962 40.621 33.135 53.605 4.549 3.08 9.414 5.643 14.452 7.514 5.758 2.131 10.825 3.196 15.92 3.196z" fill="#ffece4" fill-rule="evenodd"/></g><g><path clip-rule="evenodd" d="m249.652 56.459c30.228 0 35.381 30.488 60.139 30.488h11.659v-30.171c0-46.638-75.109-69.9-98.6-39.355-30.717 2.706-28.443 43.558-28.443 48.941v25.219h16.985c26.629 0 5.096-35.123 28.27-35.123h9.99z" fill="#c38959" fill-rule="evenodd"/></g><g><path clip-rule="evenodd" d="m306.279 331.798h24.211v120.252h-24.211z" fill="#566b74" fill-rule="evenodd"/></g><g><path clip-rule="evenodd" d="m234.078 331.798v120.252h24.182l.029-120.252z" fill="#566b74" fill-rule="evenodd"/></g><g><path clip-rule="evenodd" d="m227.543 176.135c4.549 3.08 9.414 5.643 14.452 7.514 5.758 2.13 10.824 3.196 15.92 3.196 5.067 0 10.162-1.065 15.891-3.196 5.038-1.871 9.903-4.434 14.481-7.514v-8.003-8.147c-4.577 3.08-9.443 5.643-14.481 7.514-5.729 2.13-10.824 3.196-15.891 3.196-5.096 0-10.162-1.065-15.92-3.196-5.038-1.871-9.903-4.434-14.452-7.514v8.147z" fill="#ffcbbe" fill-rule="evenodd"/></g><g><path clip-rule="evenodd" d="m288.286 168.938c42.693 5.815 69.725 41.946 69.725 94.428v44.796h17.618v-44.796c0-57.377-32.3-95.234-82.133-95.234h-5.211v.806z" fill="#b3e59f" fill-rule="evenodd"/></g><path d="m322.763 245.647c-4.265 0-7.726 3.461-7.726 7.726l-.021 78.428h7.747l7.726-.003v-78.425c.001-4.265-3.461-7.726-7.726-7.726zm-128.957-.003c-4.275 0-7.726 3.461-7.726 7.726l-.02 74.369.002 4.062 15.451-.003.02-78.428c-.001-4.265-3.462-7.726-7.727-7.726z" fill="#b3e59f"/><g><path clip-rule="evenodd" d="m273.806 167.498c5.038-1.871 9.903-4.434 14.481-7.514 19.173-12.984 33.164-35.18 33.164-53.605v-19.432h-11.659c-3.109 0-5.873-.461-8.435-1.296h-.029v19.433c0 24.989-23.75 52.252-47.616 61.119-2.159.777-4.203 1.439-6.189 1.929-.749.173-1.497.345-2.217.489 4.433 1.382 8.521 2.073 12.609 2.073 4.549 0 9.097-.864 14.135-2.562.575-.202 1.18-.403 1.756-.634z" fill="#ffddce" fill-rule="evenodd"/></g><g><path clip-rule="evenodd" d="m301.356 75.776v9.875c2.562.835 5.326 1.296 8.435 1.296h11.659v-9.875-20.296c0-34.144-40.275-55.764-71.078-52.914 25.766 5.441 50.984 24.586 50.984 51.59z" fill="#b17a4a" fill-rule="evenodd"/></g><g><path clip-rule="evenodd" d="m330.49 331.798c.207 12.62 10.87 22.801 23.645 22.2 12.134-.571 21.495-10.967 21.495-23.114v-22.722h-44.11c-.569 0-1.03.461-1.03 1.03z" fill="#ffece4" fill-rule="evenodd"/></g><g><path clip-rule="evenodd" d="m140.919 330.884c0 12.147 9.361 22.543 21.495 23.114 12.775.601 23.438-9.58 23.645-22.2v-.345-22.26c0-.569-.461-1.03-1.03-1.03h-44.11z" fill="#ffece4" fill-rule="evenodd"/></g><g><path clip-rule="evenodd" d="m163.489 354.023c12.293 0 22.369-9.961 22.57-22.225v-.345-22.26c0-.569-.461-1.03-1.03-1.03h-16.589v23.29.345c-.144 9.155-5.786 17.014-13.761 20.411 2.707 1.152 5.701 1.814 8.81 1.814z" fill="#ffddce" fill-rule="evenodd"/></g><g><path clip-rule="evenodd" d="m353.06 354.023c12.408 0 22.57-10.163 22.57-22.571v-23.29h-17.618v23.29c0 9.27-5.7 17.302-13.761 20.757 2.706 1.152 5.671 1.814 8.809 1.814z" fill="#ffddce" fill-rule="evenodd"/></g></g></svg>